<?xml version="1.0" encoding="UTF-8"?>
<svg xmlns="http://www.w3.org/2000/svg" xmlns:xlink="http://www.w3.org/1999/xlink" width="117.828pt" height="57.87pt" viewBox="0 0 117.828 57.87">
<defs>
<g>
<g id="glyph-0-0">
<path d="M 2.0625 3.046875 L 3.09375 3.046875 L 3.09375 -2.15625 L 5.4375 -2.15625 L 5.4375 -3.34375 L 1.875 -3.34375 L 1.875 3.046875 Z M 2.0625 3.046875 "/>
</g>
<g id="glyph-0-1">
<path d="M -0.296875 -2.15625 L 5.4375 -2.15625 L 5.4375 -3.34375 L -0.46875 -3.34375 L -0.46875 -2.15625 Z M -0.296875 -2.15625 "/>
</g>
<g id="glyph-0-2">
<path d="M 2.0625 3.046875 L 3.09375 3.046875 L 3.09375 -3.34375 L -0.46875 -3.34375 L -0.46875 -2.15625 L 1.875 -2.15625 L 1.875 3.046875 Z M 2.0625 3.046875 "/>
</g>
<g id="glyph-0-3">
<path d="M 2.15625 0.640625 L 2.984375 0.640625 L 2.984375 -6.59375 L 1.984375 -6.59375 L 1.984375 0.640625 Z M 2.15625 0.640625 "/>
</g>
<g id="glyph-0-4">
<path d="M 2.484375 -6.078125 C 1.03125 -6.078125 0.4375 -4.46875 0.4375 -2.96875 C 0.4375 -1.46875 1.03125 0.140625 2.484375 0.140625 C 3.953125 0.140625 4.53125 -1.46875 4.53125 -2.96875 C 4.53125 -4.46875 3.953125 -6.078125 2.484375 -6.078125 Z M 2.484375 -5.15625 C 2.75 -5.15625 2.859375 -5.109375 2.953125 -5 L 1.375 -1.3125 L 1.71875 -1.3125 C 1.546875 -1.703125 1.453125 -2.28125 1.453125 -2.96875 C 1.453125 -4.390625 1.65625 -5.15625 2.484375 -5.15625 Z M 3.515625 -2.96875 C 3.515625 -1.546875 3.328125 -0.78125 2.484375 -0.78125 C 2.265625 -0.78125 2.1875 -0.796875 2.109375 -0.859375 L 3.640625 -4.5 L 3.296875 -4.5 C 3.453125 -4.109375 3.515625 -3.59375 3.515625 -2.96875 Z M 3.515625 -2.96875 "/>
</g>
<g id="glyph-0-5">
<path d="M 2.203125 -2.3125 L 5.4375 -2.3125 L 5.4375 -3.1875 L 2.03125 -3.1875 L 2.03125 -2.3125 Z M 2.203125 -2.3125 "/>
</g>
<g id="glyph-0-6">
<path d="M -0.296875 -2.3125 L 5.4375 -2.3125 L 5.4375 -3.1875 L -0.46875 -3.1875 L -0.46875 -2.3125 Z M -0.296875 -2.3125 "/>
</g>
<g id="glyph-0-7">
<path d="M 2.0625 3.046875 L 3.09375 3.046875 L 3.09375 -8.546875 L 1.875 -8.546875 L 1.875 -3.1875 L -0.46875 -3.1875 L -0.46875 -2.3125 L 1.875 -2.3125 L 1.875 3.046875 Z M 2.0625 3.046875 "/>
</g>
<g id="glyph-0-8">
<path d="M 2.0625 3.046875 L 3.09375 3.046875 L 3.09375 -2.3125 L 5.4375 -2.3125 L 5.4375 -3.1875 L 3.09375 -3.1875 L 3.09375 -8.546875 L 1.875 -8.546875 L 1.875 3.046875 Z M 2.0625 3.046875 "/>
</g>
<g id="glyph-0-9">
<path d="M 2.0625 -2.15625 L 5.4375 -2.15625 L 5.4375 -3.34375 L 3.09375 -3.34375 L 3.09375 -8.546875 L 1.875 -8.546875 L 1.875 -2.15625 Z M 2.0625 -2.15625 "/>
</g>
<g id="glyph-0-10">
<path d="M -0.296875 -2.15625 L 3.09375 -2.15625 L 3.09375 -8.546875 L 1.875 -8.546875 L 1.875 -3.34375 L -0.46875 -3.34375 L -0.46875 -2.15625 Z M -0.296875 -2.15625 "/>
</g>
<g id="glyph-0-11">
<path d="M -0.296875 -2.15625 L 5.4375 -2.15625 L 5.4375 -3.34375 L 2.953125 -3.34375 L 2.953125 -8.546875 L 2.03125 -8.546875 L 2.03125 -3.34375 L -0.46875 -3.34375 L -0.46875 -2.15625 Z M -0.296875 -2.15625 "/>
</g>
<g id="glyph-1-0">
<path d="M 3.1875 -2.421875 L 2.125 1.015625 L 1.484375 1.015625 L 2.53125 -2.421875 L 1.484375 -5.875 L 2.125 -5.875 Z M 3.1875 -2.421875 "/>
</g>
<g id="glyph-2-0">
<path d="M 3.15625 0 L 4.046875 0 L 5.3125 -5.9375 L 4.203125 -5.9375 L 3.6875 -3.515625 L 1.828125 -3.515625 L 2.34375 -5.9375 L 1.234375 -5.9375 L -0.03125 0 L 1.078125 0 L 1.625 -2.5625 L 3.484375 -2.5625 L 2.9375 0 Z M 3.15625 0 "/>
</g>
<g id="glyph-3-0">
<path d="M 1.953125 -0.375 C 2.953125 -0.375 3.96875 -1.375 3.96875 -2.390625 C 3.96875 -3.390625 2.953125 -4.390625 1.953125 -4.390625 C 0.9375 -4.390625 -0.078125 -3.390625 -0.078125 -2.390625 C -0.078125 -1.375 0.9375 -0.375 1.953125 -0.375 Z M 1.953125 -0.375 "/>
</g>
<g id="glyph-4-0">
<path d="M 6.15625 -2.265625 L 6.15625 -2.46875 L 5.859375 -2.46875 C 5.796875 -2.46875 5.546875 -2.296875 5.546875 -2.28125 C 5.5 -1.953125 5.5 -1.453125 5.0625 -1.046875 C 4.703125 -0.71875 4.40625 -0.734375 2.34375 -0.734375 L 1.484375 -0.75 L 2.375 -1.734375 C 3 -2.453125 3.53125 -3.0625 3.546875 -3.078125 C 3.546875 -3.09375 3.546875 -3.359375 3.59375 -3.28125 C 3.59375 -3.28125 3.109375 -4.015625 2.59375 -4.765625 C 2.078125 -5.5 1.71875 -5.984375 1.71875 -6.078125 C 1.65625 -6.140625 1.734375 -5.84375 2.734375 -5.84375 C 3.53125 -5.828125 3.984375 -5.828125 4.0625 -5.828125 C 4.59375 -5.78125 4.734375 -5.75 4.953125 -5.609375 C 5.234375 -5.421875 5.375 -5.1875 5.484375 -4.6875 C 5.5 -4.609375 5.546875 -4.296875 5.546875 -4.28125 C 5.546875 -4.265625 5.796875 -4.09375 5.859375 -4.09375 L 6.15625 -4.09375 L 6.15625 -4.3125 C 6.140625 -4.34375 5.875 -6.328125 5.90625 -6.28125 L 5.90625 -6.46875 L 3.140625 -6.46875 C 0.890625 -6.46875 0.4375 -6.421875 0.40625 -6.40625 C 0.375 -6.390625 0.3125 -6.21875 0.3125 -6.15625 C 0.3125 -6.09375 0.359375 -5.953125 0.390625 -5.90625 L 2.5 -2.859375 L 1.484375 -1.71875 C 0.875 -1.015625 0.375 -0.453125 0.34375 -0.421875 C 0.3125 -0.28125 0.359375 -0.140625 0.375 -0.09375 C 0.40625 -0.046875 0.3125 0 3.140625 0 L 5.90625 0 L 5.90625 -0.203125 C 5.953125 -0.359375 6.109375 -2.109375 6.15625 -2.265625 Z M 6.15625 -2.265625 "/>
</g>
</g>
<clipPath id="clip-0">
<path clip-rule="nonzero" d="M 57 7 L 117.828125 7 L 117.828125 8 L 57 8 Z M 57 7 "/>
</clipPath>
<clipPath id="clip-1">
<path clip-rule="nonzero" d="M 77 21 L 117.828125 21 L 117.828125 23 L 77 23 Z M 77 21 "/>
</clipPath>
<clipPath id="clip-2">
<path clip-rule="nonzero" d="M 97 35 L 117.828125 35 L 117.828125 37 L 97 37 Z M 97 35 "/>
</clipPath>
<clipPath id="clip-3">
<path clip-rule="nonzero" d="M 99 44 L 117.828125 44 L 117.828125 56 L 99 56 Z M 99 44 "/>
</clipPath>
<clipPath id="clip-4">
<path clip-rule="nonzero" d="M 89 51 L 101 51 L 101 57.871094 L 89 57.871094 Z M 89 51 "/>
</clipPath>
</defs>
<g fill="rgb(0%, 0%, 0%)" fill-opacity="1">
<use xlink:href="#glyph-0-0" x="27.785" y="3.041"/>
<use xlink:href="#glyph-0-1" x="32.771024" y="3.041"/>
<use xlink:href="#glyph-0-2" x="37.757048" y="3.041"/>
</g>
<g fill="rgb(0%, 0%, 0%)" fill-opacity="1">
<use xlink:href="#glyph-0-3" x="-2.132" y="10.164"/>
<use xlink:href="#glyph-0-4" x="2.854024" y="10.164"/>
</g>
<g fill="rgb(0%, 0%, 0%)" fill-opacity="1">
<use xlink:href="#glyph-1-0" x="8.006" y="10.164"/>
</g>
<g fill="rgb(0%, 0%, 0%)" fill-opacity="1">
<use xlink:href="#glyph-0-5" x="12.827" y="10.164"/>
<use xlink:href="#glyph-0-6" x="17.813024" y="10.164"/>
<use xlink:href="#glyph-0-6" x="22.799048" y="10.164"/>
<use xlink:href="#glyph-0-7" x="27.785072" y="10.164"/>
</g>
<g fill="rgb(0%, 0%, 0%)" fill-opacity="1">
<use xlink:href="#glyph-2-0" x="32.771" y="10.164"/>
</g>
<g fill="rgb(0%, 0%, 0%)" fill-opacity="1">
<use xlink:href="#glyph-0-8" x="37.757" y="10.164"/>
<use xlink:href="#glyph-0-6" x="42.743024" y="10.164"/>
<use xlink:href="#glyph-0-6" x="47.729048" y="10.164"/>
</g>
<g fill="rgb(0%, 0%, 0%)" fill-opacity="1">
<use xlink:href="#glyph-3-0" x="53.269" y="9.76"/>
</g>
<g clip-path="url(#clip-0)">
<g fill="rgb(0%, 0%, 0%)" fill-opacity="1">
<use xlink:href="#glyph-0-6" x="57.701" y="10.164"/>
<use xlink:href="#glyph-0-6" x="62.687024" y="10.164"/>
<use xlink:href="#glyph-0-6" x="67.673048" y="10.164"/>
<use xlink:href="#glyph-0-6" x="72.659072" y="10.164"/>
<use xlink:href="#glyph-0-6" x="77.645096" y="10.164"/>
<use xlink:href="#glyph-0-6" x="82.63112" y="10.164"/>
<use xlink:href="#glyph-0-6" x="87.617144" y="10.164"/>
<use xlink:href="#glyph-0-6" x="92.603168" y="10.164"/>
<use xlink:href="#glyph-0-6" x="97.589192" y="10.164"/>
<use xlink:href="#glyph-0-6" x="102.575216" y="10.164"/>
<use xlink:href="#glyph-0-6" x="107.56124" y="10.164"/>
<use xlink:href="#glyph-0-6" x="112.547264" y="10.164"/>
</g>
</g>
<g fill="rgb(0%, 0%, 0%)" fill-opacity="1">
<use xlink:href="#glyph-0-9" x="27.785" y="17.287"/>
<use xlink:href="#glyph-0-1" x="32.771024" y="17.287"/>
<use xlink:href="#glyph-0-10" x="37.757048" y="17.287"/>
</g>
<g fill="rgb(0%, 0%, 0%)" fill-opacity="1">
<use xlink:href="#glyph-0-0" x="47.721028" y="17.287"/>
<use xlink:href="#glyph-0-11" x="52.707052" y="17.287"/>
<use xlink:href="#glyph-0-2" x="57.693076" y="17.287"/>
</g>
<g fill="rgb(0%, 0%, 0%)" fill-opacity="1">
<use xlink:href="#glyph-0-3" x="-2.132" y="24.41"/>
<use xlink:href="#glyph-0-4" x="2.854024" y="24.41"/>
</g>
<g fill="rgb(0%, 0%, 0%)" fill-opacity="1">
<use xlink:href="#glyph-1-0" x="8.006" y="24.41"/>
</g>
<g fill="rgb(0%, 0%, 0%)" fill-opacity="1">
<use xlink:href="#glyph-0-5" x="12.827" y="24.41"/>
<use xlink:href="#glyph-0-6" x="17.813024" y="24.41"/>
<use xlink:href="#glyph-0-6" x="22.799048" y="24.41"/>
<use xlink:href="#glyph-0-6" x="27.785072" y="24.41"/>
<use xlink:href="#glyph-0-6" x="32.771096" y="24.41"/>
<use xlink:href="#glyph-0-6" x="37.75712" y="24.41"/>
<use xlink:href="#glyph-0-6" x="42.743144" y="24.41"/>
<use xlink:href="#glyph-0-7" x="47.729168" y="24.41"/>
</g>
<g fill="rgb(0%, 0%, 0%)" fill-opacity="1">
<use xlink:href="#glyph-4-0" x="51.971" y="24.41"/>
</g>
<g fill="rgb(0%, 0%, 0%)" fill-opacity="1">
<use xlink:href="#glyph-0-8" x="57.701" y="24.41"/>
<use xlink:href="#glyph-0-6" x="62.687024" y="24.41"/>
<use xlink:href="#glyph-0-6" x="67.673048" y="24.41"/>
</g>
<g fill="rgb(0%, 0%, 0%)" fill-opacity="1">
<use xlink:href="#glyph-3-0" x="73.213" y="24.007"/>
</g>
<g clip-path="url(#clip-1)">
<g fill="rgb(0%, 0%, 0%)" fill-opacity="1">
<use xlink:href="#glyph-0-6" x="77.645" y="24.41"/>
<use xlink:href="#glyph-0-6" x="82.631024" y="24.41"/>
<use xlink:href="#glyph-0-6" x="87.617048" y="24.41"/>
<use xlink:href="#glyph-0-6" x="92.603072" y="24.41"/>
<use xlink:href="#glyph-0-6" x="97.589096" y="24.41"/>
<use xlink:href="#glyph-0-6" x="102.57512" y="24.41"/>
<use xlink:href="#glyph-0-6" x="107.561144" y="24.41"/>
<use xlink:href="#glyph-0-6" x="112.547168" y="24.41"/>
</g>
</g>
<g fill="rgb(0%, 0%, 0%)" fill-opacity="1">
<use xlink:href="#glyph-0-9" x="47.729" y="31.534"/>
<use xlink:href="#glyph-0-1" x="52.715024" y="31.534"/>
<use xlink:href="#glyph-0-10" x="57.701048" y="31.534"/>
</g>
<g fill="rgb(0%, 0%, 0%)" fill-opacity="1">
<use xlink:href="#glyph-0-0" x="67.665028" y="31.534"/>
<use xlink:href="#glyph-0-11" x="72.651052" y="31.534"/>
<use xlink:href="#glyph-0-2" x="77.637076" y="31.534"/>
</g>
<g fill="rgb(0%, 0%, 0%)" fill-opacity="1">
<use xlink:href="#glyph-0-3" x="-2.132" y="38.657"/>
<use xlink:href="#glyph-0-4" x="2.854024" y="38.657"/>
</g>
<g fill="rgb(0%, 0%, 0%)" fill-opacity="1">
<use xlink:href="#glyph-1-0" x="8.006" y="38.657"/>
</g>
<g fill="rgb(0%, 0%, 0%)" fill-opacity="1">
<use xlink:href="#glyph-0-5" x="12.827" y="38.657"/>
<use xlink:href="#glyph-0-6" x="17.813024" y="38.657"/>
<use xlink:href="#glyph-0-6" x="22.799048" y="38.657"/>
<use xlink:href="#glyph-0-6" x="27.785072" y="38.657"/>
<use xlink:href="#glyph-0-6" x="32.771096" y="38.657"/>
<use xlink:href="#glyph-0-6" x="37.75712" y="38.657"/>
<use xlink:href="#glyph-0-6" x="42.743144" y="38.657"/>
<use xlink:href="#glyph-0-6" x="47.729168" y="38.657"/>
<use xlink:href="#glyph-0-6" x="52.715192" y="38.657"/>
<use xlink:href="#glyph-0-6" x="57.701216" y="38.657"/>
<use xlink:href="#glyph-0-6" x="62.68724" y="38.657"/>
<use xlink:href="#glyph-0-7" x="67.673264" y="38.657"/>
</g>
<g fill="rgb(0%, 0%, 0%)" fill-opacity="1">
<use xlink:href="#glyph-4-0" x="71.915" y="38.657"/>
</g>
<g fill="rgb(0%, 0%, 0%)" fill-opacity="1">
<use xlink:href="#glyph-0-8" x="77.645" y="38.657"/>
<use xlink:href="#glyph-0-6" x="82.631024" y="38.657"/>
<use xlink:href="#glyph-0-6" x="87.617048" y="38.657"/>
</g>
<g fill="rgb(0%, 0%, 0%)" fill-opacity="1">
<use xlink:href="#glyph-3-0" x="93.157" y="38.253"/>
</g>
<g clip-path="url(#clip-2)">
<g fill="rgb(0%, 0%, 0%)" fill-opacity="1">
<use xlink:href="#glyph-0-6" x="97.589" y="38.657"/>
<use xlink:href="#glyph-0-6" x="102.575024" y="38.657"/>
<use xlink:href="#glyph-0-6" x="107.561048" y="38.657"/>
<use xlink:href="#glyph-0-6" x="112.547072" y="38.657"/>
</g>
</g>
<g fill="rgb(0%, 0%, 0%)" fill-opacity="1">
<use xlink:href="#glyph-0-9" x="67.673" y="45.78"/>
<use xlink:href="#glyph-0-1" x="72.659024" y="45.78"/>
<use xlink:href="#glyph-0-10" x="77.645048" y="45.78"/>
</g>
<g fill="rgb(0%, 0%, 0%)" fill-opacity="1">
<use xlink:href="#glyph-0-0" x="87.617096" y="45.78"/>
<use xlink:href="#glyph-0-11" x="92.60312" y="45.78"/>
<use xlink:href="#glyph-0-2" x="97.589144" y="45.78"/>
</g>
<g fill="rgb(0%, 0%, 0%)" fill-opacity="1">
<use xlink:href="#glyph-0-3" x="-2.132" y="52.903"/>
<use xlink:href="#glyph-0-4" x="2.854024" y="52.903"/>
</g>
<g fill="rgb(0%, 0%, 0%)" fill-opacity="1">
<use xlink:href="#glyph-1-0" x="8.006" y="52.903"/>
</g>
<g fill="rgb(0%, 0%, 0%)" fill-opacity="1">
<use xlink:href="#glyph-0-5" x="12.827" y="52.903"/>
<use xlink:href="#glyph-0-6" x="17.813024" y="52.903"/>
<use xlink:href="#glyph-0-6" x="22.799048" y="52.903"/>
<use xlink:href="#glyph-0-6" x="27.785072" y="52.903"/>
<use xlink:href="#glyph-0-6" x="32.771096" y="52.903"/>
<use xlink:href="#glyph-0-6" x="37.75712" y="52.903"/>
<use xlink:href="#glyph-0-6" x="42.743144" y="52.903"/>
<use xlink:href="#glyph-0-6" x="47.729168" y="52.903"/>
<use xlink:href="#glyph-0-6" x="52.715192" y="52.903"/>
<use xlink:href="#glyph-0-6" x="57.701216" y="52.903"/>
<use xlink:href="#glyph-0-6" x="62.68724" y="52.903"/>
<use xlink:href="#glyph-0-6" x="67.673264" y="52.903"/>
<use xlink:href="#glyph-0-6" x="72.659288" y="52.903"/>
<use xlink:href="#glyph-0-6" x="77.645312" y="52.903"/>
<use xlink:href="#glyph-0-6" x="82.631336" y="52.903"/>
<use xlink:href="#glyph-0-7" x="87.61736" y="52.903"/>
</g>
<g fill="rgb(0%, 0%, 0%)" fill-opacity="1">
<use xlink:href="#glyph-4-0" x="91.859" y="52.903"/>
</g>
<g clip-path="url(#clip-3)">
<g fill="rgb(0%, 0%, 0%)" fill-opacity="1">
<use xlink:href="#glyph-0-8" x="97.589" y="52.903"/>
<use xlink:href="#glyph-0-6" x="102.575024" y="52.903"/>
<use xlink:href="#glyph-0-6" x="107.561048" y="52.903"/>
<use xlink:href="#glyph-0-6" x="112.547072" y="52.903"/>
</g>
</g>
<g clip-path="url(#clip-4)">
<g fill="rgb(0%, 0%, 0%)" fill-opacity="1">
<use xlink:href="#glyph-0-9" x="87.617" y="60.026"/>
<use xlink:href="#glyph-0-1" x="92.603024" y="60.026"/>
<use xlink:href="#glyph-0-10" x="97.589048" y="60.026"/>
</g>
</g>
</svg>
