<?xml version="1.0" encoding="UTF-8"?>
<svg xmlns="http://www.w3.org/2000/svg" xmlns:xlink="http://www.w3.org/1999/xlink" width="62.982pt" height="35.802pt" viewBox="0 0 62.982 35.802">
<defs>
<g>
<g id="glyph-0-0">
<path d="M 2.15625 0.640625 L 2.984375 0.640625 L 2.984375 -6.59375 L 1.984375 -6.59375 L 1.984375 0.640625 Z M 2.15625 0.640625 "/>
</g>
<g id="glyph-0-1">
<path d="M 2.203125 -2.3125 L 5.4375 -2.3125 L 5.4375 -3.1875 L 2.03125 -3.1875 L 2.03125 -2.3125 Z M 2.203125 -2.3125 "/>
</g>
<g id="glyph-0-2">
<path d="M -0.296875 -2.3125 L 5.4375 -2.3125 L 5.4375 -3.1875 L -0.46875 -3.1875 L -0.46875 -2.3125 Z M -0.296875 -2.3125 "/>
</g>
<g id="glyph-0-3">
<path d="M 2.203125 3.046875 L 2.953125 3.046875 L 2.953125 -8.546875 L 2.03125 -8.546875 L 2.03125 3.046875 Z M 2.203125 3.046875 "/>
</g>
<g id="glyph-0-4">
<path d="M 2.484375 -6.078125 C 1.03125 -6.078125 0.4375 -4.46875 0.4375 -2.96875 C 0.4375 -1.46875 1.03125 0.140625 2.484375 0.140625 C 3.953125 0.140625 4.53125 -1.46875 4.53125 -2.96875 C 4.53125 -4.46875 3.953125 -6.078125 2.484375 -6.078125 Z M 2.484375 -5.15625 C 2.75 -5.15625 2.859375 -5.109375 2.953125 -5 L 1.375 -1.3125 L 1.71875 -1.3125 C 1.546875 -1.703125 1.453125 -2.28125 1.453125 -2.96875 C 1.453125 -4.390625 1.65625 -5.15625 2.484375 -5.15625 Z M 3.515625 -2.96875 C 3.515625 -1.546875 3.328125 -0.78125 2.484375 -0.78125 C 2.265625 -0.78125 2.1875 -0.796875 2.109375 -0.859375 L 3.640625 -4.5 L 3.296875 -4.5 C 3.453125 -4.109375 3.515625 -3.59375 3.515625 -2.96875 Z M 3.515625 -2.96875 "/>
</g>
<g id="glyph-1-0">
<path d="M 3.171875 0 L 4.125 0 L 3.078125 -2.203125 L 5.078125 -4.53125 L 3.84375 -4.53125 L 2.625 -3.125 L 1.96875 -4.53125 L 0.9375 -4.53125 L 1.953125 -2.40625 L -0.15625 0 L 1.109375 0 L 2.390625 -1.484375 L 3.078125 0 Z M 3.171875 0 "/>
</g>
<g id="glyph-1-1">
<path d="M 2 0.84375 L 5.140625 -4.53125 L 4.03125 -4.53125 L 2.0625 -1.046875 L 2.359375 -0.9375 L 1.828125 -4.53125 L 0.828125 -4.53125 L 1.5 -0.125 L 1.15625 0.421875 C 0.984375 0.703125 0.890625 0.8125 0.546875 0.8125 C 0.375 0.8125 0.234375 0.796875 -0.0625 0.703125 L -0.296875 1.5625 C 0.078125 1.703125 0.296875 1.75 0.53125 1.75 C 1.140625 1.75 1.671875 1.40625 2 0.84375 Z M 2 0.84375 "/>
</g>
<g id="glyph-2-0">
<path d="M 3.1875 -2.421875 L 2.125 1.015625 L 1.484375 1.015625 L 2.53125 -2.421875 L 1.484375 -5.875 L 2.125 -5.875 Z M 3.1875 -2.421875 "/>
</g>
<g id="glyph-3-0">
<path d="M 1.953125 -0.375 C 2.953125 -0.375 3.96875 -1.375 3.96875 -2.390625 C 3.96875 -3.390625 2.953125 -4.390625 1.953125 -4.390625 C 0.9375 -4.390625 -0.078125 -3.390625 -0.078125 -2.390625 C -0.078125 -1.375 0.9375 -0.375 1.953125 -0.375 Z M 1.953125 -0.375 "/>
</g>
<g id="glyph-4-0">
<path d="M 7.046875 -3.390625 C 7.046875 -2.785156 6.894531 -2.226562 6.59375 -1.71875 C 6.300781 -1.207031 5.898438 -0.800781 5.390625 -0.5 C 4.878906 -0.207031 4.320312 -0.0625 3.71875 -0.0625 C 3.113281 -0.0625 2.554688 -0.207031 2.046875 -0.5 C 1.535156 -0.800781 1.128906 -1.207031 0.828125 -1.71875 C 0.535156 -2.226562 0.390625 -2.785156 0.390625 -3.390625 C 0.390625 -4.003906 0.535156 -4.566406 0.828125 -5.078125 C 1.128906 -5.585938 1.53125 -5.988281 2.03125 -6.28125 C 2.539062 -6.582031 3.101562 -6.734375 3.71875 -6.734375 C 4.320312 -6.734375 4.878906 -6.582031 5.390625 -6.28125 C 5.898438 -5.988281 6.300781 -5.585938 6.59375 -5.078125 C 6.894531 -4.566406 7.046875 -4.003906 7.046875 -3.390625 Z M 6.109375 -3.78125 C 6.066406 -4.132812 5.953125 -4.453125 5.765625 -4.734375 C 5.578125 -5.023438 5.335938 -5.265625 5.046875 -5.453125 C 4.765625 -5.640625 4.453125 -5.757812 4.109375 -5.8125 L 4.109375 -3.78125 Z M 3.328125 -5.8125 C 2.972656 -5.757812 2.648438 -5.640625 2.359375 -5.453125 C 2.078125 -5.265625 1.84375 -5.023438 1.65625 -4.734375 C 1.46875 -4.441406 1.351562 -4.125 1.3125 -3.78125 L 3.328125 -3.78125 Z M 4.109375 -0.984375 C 4.453125 -1.035156 4.765625 -1.148438 5.046875 -1.328125 C 5.335938 -1.515625 5.578125 -1.753906 5.765625 -2.046875 C 5.953125 -2.335938 6.066406 -2.660156 6.109375 -3.015625 L 4.109375 -3.015625 Z M 1.3125 -3.015625 C 1.351562 -2.671875 1.46875 -2.351562 1.65625 -2.0625 C 1.84375 -1.769531 2.082031 -1.53125 2.375 -1.34375 C 2.664062 -1.15625 2.984375 -1.035156 3.328125 -0.984375 L 3.328125 -3.015625 Z M 1.3125 -3.015625 "/>
</g>
</g>
<clipPath id="clip-0">
<path clip-rule="nonzero" d="M 47 3 L 62.980469 3 L 62.980469 4 L 47 4 Z M 47 3 "/>
</clipPath>
<clipPath id="clip-1">
<path clip-rule="nonzero" d="M 47 17 L 62.980469 17 L 62.980469 19 L 47 19 Z M 47 17 "/>
</clipPath>
<clipPath id="clip-2">
<path clip-rule="nonzero" d="M 0 28 L 8 28 L 8 35.800781 L 0 35.800781 Z M 0 28 "/>
</clipPath>
<clipPath id="clip-3">
<path clip-rule="nonzero" d="M 9 28 L 12 28 L 12 35.800781 L 9 35.800781 Z M 9 28 "/>
</clipPath>
<clipPath id="clip-4">
<path clip-rule="nonzero" d="M 26 28 L 34 28 L 34 35.800781 L 26 35.800781 Z M 26 28 "/>
</clipPath>
<clipPath id="clip-5">
<path clip-rule="nonzero" d="M 32 31 L 62.980469 31 L 62.980469 33 L 32 33 Z M 32 31 "/>
</clipPath>
</defs>
<g fill="rgb(0%, 0%, 0%)" fill-opacity="1">
<use xlink:href="#glyph-0-0" x="-2.132" y="6.281"/>
</g>
<g fill="rgb(0%, 0%, 0%)" fill-opacity="1">
<use xlink:href="#glyph-1-0" x="2.854" y="6.281"/>
</g>
<g fill="rgb(0%, 0%, 0%)" fill-opacity="1">
<use xlink:href="#glyph-2-0" x="8.006" y="6.281"/>
</g>
<g fill="rgb(0%, 0%, 0%)" fill-opacity="1">
<use xlink:href="#glyph-0-1" x="12.827" y="6.281"/>
<use xlink:href="#glyph-0-2" x="17.813024" y="6.281"/>
<use xlink:href="#glyph-0-2" x="22.799048" y="6.281"/>
</g>
<g fill="rgb(0%, 0%, 0%)" fill-opacity="1">
<use xlink:href="#glyph-3-0" x="28.339" y="5.877"/>
</g>
<g fill="rgb(0%, 0%, 0%)" fill-opacity="1">
<use xlink:href="#glyph-0-2" x="32.771" y="6.281"/>
<use xlink:href="#glyph-0-2" x="37.757024" y="6.281"/>
</g>
<g fill="rgb(0%, 0%, 0%)" fill-opacity="1">
<use xlink:href="#glyph-3-0" x="43.297" y="5.877"/>
</g>
<g clip-path="url(#clip-0)">
<g fill="rgb(0%, 0%, 0%)" fill-opacity="1">
<use xlink:href="#glyph-0-2" x="47.729" y="6.281"/>
<use xlink:href="#glyph-0-2" x="52.715024" y="6.281"/>
<use xlink:href="#glyph-0-2" x="57.701048" y="6.281"/>
</g>
</g>
<g fill="rgb(0%, 0%, 0%)" fill-opacity="1">
<use xlink:href="#glyph-0-3" x="27.785" y="13.404"/>
</g>
<g fill="rgb(0%, 0%, 0%)" fill-opacity="1">
<use xlink:href="#glyph-0-3" x="42.735004" y="13.404"/>
</g>
<g fill="rgb(0%, 0%, 0%)" fill-opacity="1">
<use xlink:href="#glyph-0-0" x="-2.132" y="20.527"/>
</g>
<g fill="rgb(0%, 0%, 0%)" fill-opacity="1">
<use xlink:href="#glyph-1-1" x="2.854" y="20.527"/>
</g>
<g fill="rgb(0%, 0%, 0%)" fill-opacity="1">
<use xlink:href="#glyph-2-0" x="8.005" y="20.527"/>
</g>
<g fill="rgb(0%, 0%, 0%)" fill-opacity="1">
<use xlink:href="#glyph-0-1" x="12.826" y="20.527"/>
<use xlink:href="#glyph-0-2" x="17.812024" y="20.527"/>
<use xlink:href="#glyph-0-2" x="22.798048" y="20.527"/>
</g>
<g fill="rgb(0%, 0%, 0%)" fill-opacity="1">
<use xlink:href="#glyph-3-0" x="28.339" y="20.124"/>
</g>
<g fill="rgb(0%, 0%, 0%)" fill-opacity="1">
<use xlink:href="#glyph-0-2" x="32.771" y="20.527"/>
<use xlink:href="#glyph-0-2" x="37.757024" y="20.527"/>
</g>
<g fill="rgb(0%, 0%, 0%)" fill-opacity="1">
<use xlink:href="#glyph-4-0" x="41.522" y="21.334"/>
</g>
<g clip-path="url(#clip-1)">
<g fill="rgb(0%, 0%, 0%)" fill-opacity="1">
<use xlink:href="#glyph-0-2" x="47.729" y="20.527"/>
<use xlink:href="#glyph-0-2" x="52.715024" y="20.527"/>
<use xlink:href="#glyph-0-2" x="57.701048" y="20.527"/>
</g>
</g>
<g fill="rgb(0%, 0%, 0%)" fill-opacity="1">
<use xlink:href="#glyph-0-3" x="27.785" y="27.65"/>
</g>
<g clip-path="url(#clip-2)">
<g fill="rgb(0%, 0%, 0%)" fill-opacity="1">
<use xlink:href="#glyph-0-0" x="-2.132" y="34.774"/>
<use xlink:href="#glyph-0-4" x="2.854024" y="34.774"/>
</g>
</g>
<g clip-path="url(#clip-3)">
<g fill="rgb(0%, 0%, 0%)" fill-opacity="1">
<use xlink:href="#glyph-2-0" x="8.005" y="34.774"/>
</g>
</g>
<g fill="rgb(0%, 0%, 0%)" fill-opacity="1">
<use xlink:href="#glyph-0-1" x="12.826" y="34.774"/>
<use xlink:href="#glyph-0-2" x="17.812024" y="34.774"/>
<use xlink:href="#glyph-0-2" x="22.798048" y="34.774"/>
</g>
<g clip-path="url(#clip-4)">
<g fill="rgb(0%, 0%, 0%)" fill-opacity="1">
<use xlink:href="#glyph-4-0" x="26.564" y="35.58"/>
</g>
</g>
<g clip-path="url(#clip-5)">
<g fill="rgb(0%, 0%, 0%)" fill-opacity="1">
<use xlink:href="#glyph-0-2" x="32.771" y="34.774"/>
<use xlink:href="#glyph-0-2" x="37.757024" y="34.774"/>
<use xlink:href="#glyph-0-2" x="42.743048" y="34.774"/>
<use xlink:href="#glyph-0-2" x="47.729072" y="34.774"/>
<use xlink:href="#glyph-0-2" x="52.715096" y="34.774"/>
<use xlink:href="#glyph-0-2" x="57.70112" y="34.774"/>
</g>
</g>
</svg>
