<?xml version="1.0" encoding="UTF-8"?>
<svg xmlns="http://www.w3.org/2000/svg" xmlns:xlink="http://www.w3.org/1999/xlink" width="45.45pt" height="15.12pt" viewBox="0 0 45.45 15.12">
<defs>
<g>
<g id="glyph-0-0">
<path d="M 2.0625 3.046875 L 3.09375 3.046875 L 3.09375 -2.15625 L 5.4375 -2.15625 L 5.4375 -3.34375 L 1.875 -3.34375 L 1.875 3.046875 Z M 2.0625 3.046875 "/>
</g>
<g id="glyph-0-1">
<path d="M -0.296875 -2.15625 L 5.4375 -2.15625 L 5.4375 -3.34375 L -0.46875 -3.34375 L -0.46875 -2.15625 Z M -0.296875 -2.15625 "/>
</g>
<g id="glyph-0-2">
<path d="M 2.0625 3.046875 L 3.09375 3.046875 L 3.09375 -3.34375 L -0.46875 -3.34375 L -0.46875 -2.15625 L 1.875 -2.15625 L 1.875 3.046875 Z M 2.0625 3.046875 "/>
</g>
<g id="glyph-0-3">
<path d="M -0.296875 -2.3125 L 5.4375 -2.3125 L 5.4375 -3.1875 L -0.46875 -3.1875 L -0.46875 -2.3125 Z M -0.296875 -2.3125 "/>
</g>
<g id="glyph-0-4">
<path d="M 2.0625 3.046875 L 3.09375 3.046875 L 3.09375 -8.546875 L 1.875 -8.546875 L 1.875 -3.1875 L -0.46875 -3.1875 L -0.46875 -2.3125 L 1.875 -2.3125 L 1.875 3.046875 Z M 2.0625 3.046875 "/>
</g>
<g id="glyph-0-5">
<path d="M 0.59375 -2.578125 L 1.40625 -2.578125 L 2.65625 -5.21875 L 2.3125 -5.21875 L 3.5625 -2.578125 L 4.640625 -2.578125 L 3.03125 -5.9375 L 1.953125 -5.9375 L 0.34375 -2.578125 Z M 0.59375 -2.578125 "/>
</g>
<g id="glyph-0-6">
<path d="M 0.9375 -5.78125 L 0.515625 -2.578125 L 1.421875 -2.578125 C 1.75 -3.015625 1.984375 -3.140625 2.4375 -3.140625 C 3.265625 -3.140625 3.46875 -2.75 3.46875 -1.96875 C 3.46875 -1.1875 3.21875 -0.78125 2.40625 -0.78125 C 1.796875 -0.78125 1.5625 -0.921875 1.359375 -1.6875 L 0.328125 -1.6875 C 0.515625 -0.296875 1.75 0.140625 2.40625 0.140625 C 3.625 0.140625 4.546875 -0.84375 4.546875 -2 C 4.546875 -3.171875 3.578125 -4.046875 2.5625 -4.046875 C 2.171875 -4.046875 1.65625 -3.90625 1.34375 -3.625 L 1.640625 -3.515625 L 1.84375 -5.015625 L 4.234375 -5.015625 L 4.234375 -5.9375 L 0.96875 -5.9375 Z M 0.9375 -5.78125 "/>
</g>
<g id="glyph-0-7">
<path d="M 2.0625 3.046875 L 3.09375 3.046875 L 3.09375 -2.3125 L 5.4375 -2.3125 L 5.4375 -3.1875 L 3.09375 -3.1875 L 3.09375 -8.546875 L 1.875 -8.546875 L 1.875 3.046875 Z M 2.0625 3.046875 "/>
</g>
<g id="glyph-0-8">
<path d="M 2.0625 -2.15625 L 5.4375 -2.15625 L 5.4375 -3.34375 L 3.09375 -3.34375 L 3.09375 -8.546875 L 1.875 -8.546875 L 1.875 -2.15625 Z M 2.0625 -2.15625 "/>
</g>
<g id="glyph-0-9">
<path d="M -0.296875 -2.15625 L 3.09375 -2.15625 L 3.09375 -8.546875 L 1.875 -8.546875 L 1.875 -3.34375 L -0.46875 -3.34375 L -0.46875 -2.15625 Z M -0.296875 -2.15625 "/>
</g>
<g id="glyph-1-0">
<path d="M 0.28125 0 L 1.171875 0 L 1.65625 -2.265625 L 3.078125 -2.265625 C 4.234375 -2.265625 5.15625 -3.1875 5.15625 -4.25 C 5.15625 -5.171875 4.359375 -5.9375 3.34375 -5.9375 L 1.34375 -5.9375 L 0.078125 0 Z M 3.203125 -5 C 3.90625 -5 4.0625 -4.859375 4.0625 -4.25 C 4.0625 -3.484375 3.75 -3.203125 2.953125 -3.203125 L 1.84375 -3.203125 L 2.234375 -5 Z M 3.203125 -5 "/>
</g>
</g>
<clipPath id="clip-0">
<path clip-rule="nonzero" d="M 37 1 L 45.449219 1 L 45.449219 14 L 37 14 Z M 37 1 "/>
</clipPath>
<clipPath id="clip-1">
<path clip-rule="nonzero" d="M 7 9 L 39 9 L 39 15.121094 L 7 15.121094 Z M 7 9 "/>
</clipPath>
</defs>
<g fill="rgb(0%, 0%, 0%)" fill-opacity="1">
<use xlink:href="#glyph-0-0" x="5.284" y="3.041"/>
<use xlink:href="#glyph-0-1" x="10.270024" y="3.041"/>
<use xlink:href="#glyph-0-1" x="15.256048" y="3.041"/>
<use xlink:href="#glyph-0-1" x="20.242072" y="3.041"/>
<use xlink:href="#glyph-0-1" x="25.228096" y="3.041"/>
<use xlink:href="#glyph-0-1" x="30.21412" y="3.041"/>
<use xlink:href="#glyph-0-2" x="35.200144" y="3.041"/>
</g>
<g fill="rgb(0%, 0%, 0%)" fill-opacity="1">
<use xlink:href="#glyph-0-3" x="0.298" y="10.164"/>
<use xlink:href="#glyph-0-4" x="5.284024" y="10.164"/>
</g>
<g fill="rgb(0%, 0%, 0%)" fill-opacity="1">
<use xlink:href="#glyph-1-0" x="15.257" y="10.164"/>
</g>
<g fill="rgb(0%, 0%, 0%)" fill-opacity="1">
<use xlink:href="#glyph-0-5" x="20.243" y="10.164"/>
<use xlink:href="#glyph-0-6" x="25.229024" y="10.164"/>
</g>
<g clip-path="url(#clip-0)">
<g fill="rgb(0%, 0%, 0%)" fill-opacity="1">
<use xlink:href="#glyph-0-7" x="35.193004" y="10.164"/>
<use xlink:href="#glyph-0-3" x="40.179028" y="10.164"/>
</g>
</g>
<g clip-path="url(#clip-1)">
<g fill="rgb(0%, 0%, 0%)" fill-opacity="1">
<use xlink:href="#glyph-0-8" x="5.284" y="17.287"/>
<use xlink:href="#glyph-0-1" x="10.270024" y="17.287"/>
<use xlink:href="#glyph-0-1" x="15.256048" y="17.287"/>
<use xlink:href="#glyph-0-1" x="20.242072" y="17.287"/>
<use xlink:href="#glyph-0-1" x="25.228096" y="17.287"/>
<use xlink:href="#glyph-0-1" x="30.21412" y="17.287"/>
<use xlink:href="#glyph-0-9" x="35.200144" y="17.287"/>
</g>
</g>
</svg>
