<?xml version="1.0" encoding="UTF-8"?>
<svg xmlns="http://www.w3.org/2000/svg" xmlns:xlink="http://www.w3.org/1999/xlink" width="279.81pt" height="92.412pt" viewBox="0 0 279.81 92.412">
<defs>
<g>
<g id="glyph-0-0">
<path d="M -0.296875 -2.3125 L 5.4375 -2.3125 L 5.4375 -3.1875 L -0.46875 -3.1875 L -0.46875 -2.3125 Z M -0.296875 -2.3125 "/>
</g>
<g id="glyph-0-1">
<path d="M 0 0.859375 L 0.4375 0.859375 L 2.484375 -1.96875 L 4.546875 0.859375 L 5.15625 0.859375 L 5.15625 0.1875 L 3.046875 -2.75 L 5.15625 -5.671875 L 5.15625 -6.375 L 4.546875 -6.375 L 2.484375 -3.515625 L 0.4375 -6.375 L -0.171875 -6.375 L -0.171875 -5.671875 L 1.9375 -2.75 L -0.171875 0.1875 L -0.171875 0.859375 Z M 0 0.859375 "/>
</g>
<g id="glyph-0-2">
<path d="M 2.203125 3.046875 L 2.953125 3.046875 L 2.953125 -8.546875 L 2.03125 -8.546875 L 2.03125 3.046875 Z M 2.203125 3.046875 "/>
</g>
</g>
<clipPath id="clip-0">
<path clip-rule="nonzero" d="M 0 0 L 279.808594 0 L 279.808594 7 L 0 7 Z M 0 0 "/>
</clipPath>
<clipPath id="clip-1">
<path clip-rule="nonzero" d="M 0 14 L 279.808594 14 L 279.808594 22 L 0 22 Z M 0 14 "/>
</clipPath>
<clipPath id="clip-2">
<path clip-rule="nonzero" d="M 0 28 L 279.808594 28 L 279.808594 36 L 0 36 Z M 0 28 "/>
</clipPath>
<clipPath id="clip-3">
<path clip-rule="nonzero" d="M 0 42 L 279.808594 42 L 279.808594 50 L 0 50 Z M 0 42 "/>
</clipPath>
<clipPath id="clip-4">
<path clip-rule="nonzero" d="M 0 56 L 279.808594 56 L 279.808594 64 L 0 64 Z M 0 56 "/>
</clipPath>
<clipPath id="clip-5">
<path clip-rule="nonzero" d="M 0 71 L 279.808594 71 L 279.808594 79 L 0 79 Z M 0 71 "/>
</clipPath>
<clipPath id="clip-6">
<path clip-rule="nonzero" d="M 0 85 L 279.808594 85 L 279.808594 92.410156 L 0 92.410156 Z M 0 85 "/>
</clipPath>
</defs>
<g clip-path="url(#clip-0)">
<g fill="rgb(0%, 0%, 0%)" fill-opacity="1">
<use xlink:href="#glyph-0-0" x="0.298" y="6.065"/>
<use xlink:href="#glyph-0-0" x="5.284024" y="6.065"/>
<use xlink:href="#glyph-0-1" x="10.270048" y="6.065"/>
<use xlink:href="#glyph-0-0" x="15.256072" y="6.065"/>
<use xlink:href="#glyph-0-0" x="20.242096" y="6.065"/>
<use xlink:href="#glyph-0-0" x="25.22812" y="6.065"/>
<use xlink:href="#glyph-0-0" x="30.214144" y="6.065"/>
<use xlink:href="#glyph-0-0" x="35.200168" y="6.065"/>
<use xlink:href="#glyph-0-0" x="40.186192" y="6.065"/>
<use xlink:href="#glyph-0-0" x="45.172216" y="6.065"/>
<use xlink:href="#glyph-0-0" x="50.15824" y="6.065"/>
<use xlink:href="#glyph-0-0" x="55.144264" y="6.065"/>
<use xlink:href="#glyph-0-0" x="60.130288" y="6.065"/>
<use xlink:href="#glyph-0-0" x="65.116312" y="6.065"/>
<use xlink:href="#glyph-0-0" x="70.102336" y="6.065"/>
<use xlink:href="#glyph-0-0" x="75.08836" y="6.065"/>
<use xlink:href="#glyph-0-0" x="80.074384" y="6.065"/>
<use xlink:href="#glyph-0-0" x="85.060408" y="6.065"/>
<use xlink:href="#glyph-0-0" x="90.046432" y="6.065"/>
<use xlink:href="#glyph-0-0" x="95.032456" y="6.065"/>
<use xlink:href="#glyph-0-1" x="100.01848" y="6.065"/>
<use xlink:href="#glyph-0-0" x="105.004504" y="6.065"/>
<use xlink:href="#glyph-0-0" x="109.990528" y="6.065"/>
<use xlink:href="#glyph-0-0" x="114.976552" y="6.065"/>
<use xlink:href="#glyph-0-0" x="119.962576" y="6.065"/>
<use xlink:href="#glyph-0-0" x="124.9486" y="6.065"/>
<use xlink:href="#glyph-0-0" x="129.934624" y="6.065"/>
<use xlink:href="#glyph-0-0" x="134.920648" y="6.065"/>
<use xlink:href="#glyph-0-0" x="139.906672" y="6.065"/>
<use xlink:href="#glyph-0-0" x="144.892696" y="6.065"/>
<use xlink:href="#glyph-0-0" x="149.87872" y="6.065"/>
<use xlink:href="#glyph-0-0" x="154.864744" y="6.065"/>
<use xlink:href="#glyph-0-0" x="159.850768" y="6.065"/>
<use xlink:href="#glyph-0-0" x="164.836792" y="6.065"/>
<use xlink:href="#glyph-0-0" x="169.822816" y="6.065"/>
<use xlink:href="#glyph-0-0" x="174.80884" y="6.065"/>
<use xlink:href="#glyph-0-0" x="179.794864" y="6.065"/>
<use xlink:href="#glyph-0-0" x="184.780888" y="6.065"/>
<use xlink:href="#glyph-0-1" x="189.766912" y="6.065"/>
<use xlink:href="#glyph-0-0" x="194.752936" y="6.065"/>
<use xlink:href="#glyph-0-0" x="199.73896" y="6.065"/>
<use xlink:href="#glyph-0-0" x="204.724984" y="6.065"/>
<use xlink:href="#glyph-0-0" x="209.711008" y="6.065"/>
<use xlink:href="#glyph-0-0" x="214.697032" y="6.065"/>
<use xlink:href="#glyph-0-0" x="219.683056" y="6.065"/>
<use xlink:href="#glyph-0-0" x="224.66908" y="6.065"/>
<use xlink:href="#glyph-0-0" x="229.655104" y="6.065"/>
<use xlink:href="#glyph-0-0" x="234.641128" y="6.065"/>
<use xlink:href="#glyph-0-0" x="239.627152" y="6.065"/>
<use xlink:href="#glyph-0-0" x="244.613176" y="6.065"/>
<use xlink:href="#glyph-0-0" x="249.5992" y="6.065"/>
<use xlink:href="#glyph-0-0" x="254.585224" y="6.065"/>
<use xlink:href="#glyph-0-0" x="259.571248" y="6.065"/>
<use xlink:href="#glyph-0-0" x="264.557272" y="6.065"/>
<use xlink:href="#glyph-0-0" x="269.543296" y="6.065"/>
<use xlink:href="#glyph-0-0" x="274.52932" y="6.065"/>
</g>
</g>
<g fill="rgb(0%, 0%, 0%)" fill-opacity="1">
<use xlink:href="#glyph-0-2" x="10.27" y="13.188"/>
</g>
<g fill="rgb(0%, 0%, 0%)" fill-opacity="1">
<use xlink:href="#glyph-0-2" x="100.019" y="13.188"/>
</g>
<g fill="rgb(0%, 0%, 0%)" fill-opacity="1">
<use xlink:href="#glyph-0-2" x="189.768" y="13.188"/>
</g>
<g clip-path="url(#clip-1)">
<g fill="rgb(0%, 0%, 0%)" fill-opacity="1">
<use xlink:href="#glyph-0-0" x="0.298" y="20.311"/>
<use xlink:href="#glyph-0-0" x="5.284024" y="20.311"/>
<use xlink:href="#glyph-0-1" x="10.270048" y="20.311"/>
<use xlink:href="#glyph-0-0" x="15.256072" y="20.311"/>
<use xlink:href="#glyph-0-0" x="20.242096" y="20.311"/>
<use xlink:href="#glyph-0-0" x="25.22812" y="20.311"/>
<use xlink:href="#glyph-0-0" x="30.214144" y="20.311"/>
<use xlink:href="#glyph-0-0" x="35.200168" y="20.311"/>
<use xlink:href="#glyph-0-0" x="40.186192" y="20.311"/>
<use xlink:href="#glyph-0-0" x="45.172216" y="20.311"/>
<use xlink:href="#glyph-0-0" x="50.15824" y="20.311"/>
<use xlink:href="#glyph-0-1" x="55.144264" y="20.311"/>
<use xlink:href="#glyph-0-0" x="60.130288" y="20.311"/>
<use xlink:href="#glyph-0-0" x="65.116312" y="20.311"/>
<use xlink:href="#glyph-0-0" x="70.102336" y="20.311"/>
<use xlink:href="#glyph-0-0" x="75.08836" y="20.311"/>
<use xlink:href="#glyph-0-0" x="80.074384" y="20.311"/>
<use xlink:href="#glyph-0-0" x="85.060408" y="20.311"/>
<use xlink:href="#glyph-0-0" x="90.046432" y="20.311"/>
<use xlink:href="#glyph-0-0" x="95.032456" y="20.311"/>
<use xlink:href="#glyph-0-1" x="100.01848" y="20.311"/>
<use xlink:href="#glyph-0-0" x="105.004504" y="20.311"/>
<use xlink:href="#glyph-0-0" x="109.990528" y="20.311"/>
<use xlink:href="#glyph-0-0" x="114.976552" y="20.311"/>
<use xlink:href="#glyph-0-0" x="119.962576" y="20.311"/>
<use xlink:href="#glyph-0-0" x="124.9486" y="20.311"/>
<use xlink:href="#glyph-0-0" x="129.934624" y="20.311"/>
<use xlink:href="#glyph-0-0" x="134.920648" y="20.311"/>
<use xlink:href="#glyph-0-0" x="139.906672" y="20.311"/>
<use xlink:href="#glyph-0-1" x="144.892696" y="20.311"/>
<use xlink:href="#glyph-0-0" x="149.87872" y="20.311"/>
<use xlink:href="#glyph-0-0" x="154.864744" y="20.311"/>
<use xlink:href="#glyph-0-0" x="159.850768" y="20.311"/>
<use xlink:href="#glyph-0-0" x="164.836792" y="20.311"/>
<use xlink:href="#glyph-0-0" x="169.822816" y="20.311"/>
<use xlink:href="#glyph-0-0" x="174.80884" y="20.311"/>
<use xlink:href="#glyph-0-0" x="179.794864" y="20.311"/>
<use xlink:href="#glyph-0-0" x="184.780888" y="20.311"/>
<use xlink:href="#glyph-0-1" x="189.766912" y="20.311"/>
<use xlink:href="#glyph-0-0" x="194.752936" y="20.311"/>
<use xlink:href="#glyph-0-0" x="199.73896" y="20.311"/>
<use xlink:href="#glyph-0-0" x="204.724984" y="20.311"/>
<use xlink:href="#glyph-0-0" x="209.711008" y="20.311"/>
<use xlink:href="#glyph-0-0" x="214.697032" y="20.311"/>
<use xlink:href="#glyph-0-0" x="219.683056" y="20.311"/>
<use xlink:href="#glyph-0-0" x="224.66908" y="20.311"/>
<use xlink:href="#glyph-0-0" x="229.655104" y="20.311"/>
<use xlink:href="#glyph-0-1" x="234.641128" y="20.311"/>
<use xlink:href="#glyph-0-0" x="239.627152" y="20.311"/>
<use xlink:href="#glyph-0-0" x="244.613176" y="20.311"/>
<use xlink:href="#glyph-0-0" x="249.5992" y="20.311"/>
<use xlink:href="#glyph-0-0" x="254.585224" y="20.311"/>
<use xlink:href="#glyph-0-0" x="259.571248" y="20.311"/>
<use xlink:href="#glyph-0-0" x="264.557272" y="20.311"/>
<use xlink:href="#glyph-0-0" x="269.543296" y="20.311"/>
<use xlink:href="#glyph-0-0" x="274.52932" y="20.311"/>
</g>
</g>
<g fill="rgb(0%, 0%, 0%)" fill-opacity="1">
<use xlink:href="#glyph-0-2" x="55.145" y="27.434"/>
</g>
<g fill="rgb(0%, 0%, 0%)" fill-opacity="1">
<use xlink:href="#glyph-0-2" x="144.894" y="27.434"/>
</g>
<g fill="rgb(0%, 0%, 0%)" fill-opacity="1">
<use xlink:href="#glyph-0-2" x="234.643" y="27.434"/>
</g>
<g clip-path="url(#clip-2)">
<g fill="rgb(0%, 0%, 0%)" fill-opacity="1">
<use xlink:href="#glyph-0-0" x="0.298" y="34.558"/>
<use xlink:href="#glyph-0-0" x="5.284024" y="34.558"/>
<use xlink:href="#glyph-0-0" x="10.270048" y="34.558"/>
<use xlink:href="#glyph-0-0" x="15.256072" y="34.558"/>
<use xlink:href="#glyph-0-0" x="20.242096" y="34.558"/>
<use xlink:href="#glyph-0-1" x="25.22812" y="34.558"/>
<use xlink:href="#glyph-0-0" x="30.214144" y="34.558"/>
<use xlink:href="#glyph-0-0" x="35.200168" y="34.558"/>
<use xlink:href="#glyph-0-0" x="40.186192" y="34.558"/>
<use xlink:href="#glyph-0-0" x="45.172216" y="34.558"/>
<use xlink:href="#glyph-0-0" x="50.15824" y="34.558"/>
<use xlink:href="#glyph-0-1" x="55.144264" y="34.558"/>
<use xlink:href="#glyph-0-0" x="60.130288" y="34.558"/>
<use xlink:href="#glyph-0-0" x="65.116312" y="34.558"/>
<use xlink:href="#glyph-0-0" x="70.102336" y="34.558"/>
<use xlink:href="#glyph-0-0" x="75.08836" y="34.558"/>
<use xlink:href="#glyph-0-0" x="80.074384" y="34.558"/>
<use xlink:href="#glyph-0-0" x="85.060408" y="34.558"/>
<use xlink:href="#glyph-0-0" x="90.046432" y="34.558"/>
<use xlink:href="#glyph-0-0" x="95.032456" y="34.558"/>
<use xlink:href="#glyph-0-0" x="100.01848" y="34.558"/>
<use xlink:href="#glyph-0-0" x="105.004504" y="34.558"/>
<use xlink:href="#glyph-0-0" x="109.990528" y="34.558"/>
<use xlink:href="#glyph-0-1" x="114.976552" y="34.558"/>
<use xlink:href="#glyph-0-0" x="119.962576" y="34.558"/>
<use xlink:href="#glyph-0-0" x="124.9486" y="34.558"/>
<use xlink:href="#glyph-0-0" x="129.934624" y="34.558"/>
<use xlink:href="#glyph-0-0" x="134.920648" y="34.558"/>
<use xlink:href="#glyph-0-0" x="139.906672" y="34.558"/>
<use xlink:href="#glyph-0-1" x="144.892696" y="34.558"/>
<use xlink:href="#glyph-0-0" x="149.87872" y="34.558"/>
<use xlink:href="#glyph-0-0" x="154.864744" y="34.558"/>
<use xlink:href="#glyph-0-0" x="159.850768" y="34.558"/>
<use xlink:href="#glyph-0-0" x="164.836792" y="34.558"/>
<use xlink:href="#glyph-0-0" x="169.822816" y="34.558"/>
<use xlink:href="#glyph-0-0" x="174.80884" y="34.558"/>
<use xlink:href="#glyph-0-0" x="179.794864" y="34.558"/>
<use xlink:href="#glyph-0-0" x="184.780888" y="34.558"/>
<use xlink:href="#glyph-0-0" x="189.766912" y="34.558"/>
<use xlink:href="#glyph-0-0" x="194.752936" y="34.558"/>
<use xlink:href="#glyph-0-0" x="199.73896" y="34.558"/>
<use xlink:href="#glyph-0-1" x="204.724984" y="34.558"/>
<use xlink:href="#glyph-0-0" x="209.711008" y="34.558"/>
<use xlink:href="#glyph-0-0" x="214.697032" y="34.558"/>
<use xlink:href="#glyph-0-0" x="219.683056" y="34.558"/>
<use xlink:href="#glyph-0-0" x="224.66908" y="34.558"/>
<use xlink:href="#glyph-0-0" x="229.655104" y="34.558"/>
<use xlink:href="#glyph-0-1" x="234.641128" y="34.558"/>
<use xlink:href="#glyph-0-0" x="239.627152" y="34.558"/>
<use xlink:href="#glyph-0-0" x="244.613176" y="34.558"/>
<use xlink:href="#glyph-0-0" x="249.5992" y="34.558"/>
<use xlink:href="#glyph-0-0" x="254.585224" y="34.558"/>
<use xlink:href="#glyph-0-0" x="259.571248" y="34.558"/>
<use xlink:href="#glyph-0-0" x="264.557272" y="34.558"/>
<use xlink:href="#glyph-0-0" x="269.543296" y="34.558"/>
<use xlink:href="#glyph-0-0" x="274.52932" y="34.558"/>
</g>
</g>
<g fill="rgb(0%, 0%, 0%)" fill-opacity="1">
<use xlink:href="#glyph-0-2" x="25.229" y="41.681"/>
</g>
<g fill="rgb(0%, 0%, 0%)" fill-opacity="1">
<use xlink:href="#glyph-0-2" x="114.977" y="41.681"/>
</g>
<g fill="rgb(0%, 0%, 0%)" fill-opacity="1">
<use xlink:href="#glyph-0-2" x="204.726" y="41.681"/>
</g>
<g clip-path="url(#clip-3)">
<g fill="rgb(0%, 0%, 0%)" fill-opacity="1">
<use xlink:href="#glyph-0-0" x="0.298" y="48.804"/>
<use xlink:href="#glyph-0-0" x="5.284024" y="48.804"/>
<use xlink:href="#glyph-0-0" x="10.270048" y="48.804"/>
<use xlink:href="#glyph-0-0" x="15.256072" y="48.804"/>
<use xlink:href="#glyph-0-0" x="20.242096" y="48.804"/>
<use xlink:href="#glyph-0-1" x="25.22812" y="48.804"/>
<use xlink:href="#glyph-0-0" x="30.214144" y="48.804"/>
<use xlink:href="#glyph-0-0" x="35.200168" y="48.804"/>
<use xlink:href="#glyph-0-0" x="40.186192" y="48.804"/>
<use xlink:href="#glyph-0-0" x="45.172216" y="48.804"/>
<use xlink:href="#glyph-0-0" x="50.15824" y="48.804"/>
<use xlink:href="#glyph-0-0" x="55.144264" y="48.804"/>
<use xlink:href="#glyph-0-0" x="60.130288" y="48.804"/>
<use xlink:href="#glyph-0-0" x="65.116312" y="48.804"/>
<use xlink:href="#glyph-0-1" x="70.102336" y="48.804"/>
<use xlink:href="#glyph-0-0" x="75.08836" y="48.804"/>
<use xlink:href="#glyph-0-0" x="80.074384" y="48.804"/>
<use xlink:href="#glyph-0-0" x="85.060408" y="48.804"/>
<use xlink:href="#glyph-0-0" x="90.046432" y="48.804"/>
<use xlink:href="#glyph-0-0" x="95.032456" y="48.804"/>
<use xlink:href="#glyph-0-0" x="100.01848" y="48.804"/>
<use xlink:href="#glyph-0-0" x="105.004504" y="48.804"/>
<use xlink:href="#glyph-0-0" x="109.990528" y="48.804"/>
<use xlink:href="#glyph-0-1" x="114.976552" y="48.804"/>
<use xlink:href="#glyph-0-0" x="119.962576" y="48.804"/>
<use xlink:href="#glyph-0-0" x="124.9486" y="48.804"/>
<use xlink:href="#glyph-0-0" x="129.934624" y="48.804"/>
<use xlink:href="#glyph-0-0" x="134.920648" y="48.804"/>
<use xlink:href="#glyph-0-0" x="139.906672" y="48.804"/>
<use xlink:href="#glyph-0-0" x="144.892696" y="48.804"/>
<use xlink:href="#glyph-0-0" x="149.87872" y="48.804"/>
<use xlink:href="#glyph-0-0" x="154.864744" y="48.804"/>
<use xlink:href="#glyph-0-1" x="159.850768" y="48.804"/>
<use xlink:href="#glyph-0-0" x="164.836792" y="48.804"/>
<use xlink:href="#glyph-0-0" x="169.822816" y="48.804"/>
<use xlink:href="#glyph-0-0" x="174.80884" y="48.804"/>
<use xlink:href="#glyph-0-0" x="179.794864" y="48.804"/>
<use xlink:href="#glyph-0-0" x="184.780888" y="48.804"/>
<use xlink:href="#glyph-0-0" x="189.766912" y="48.804"/>
<use xlink:href="#glyph-0-0" x="194.752936" y="48.804"/>
<use xlink:href="#glyph-0-0" x="199.73896" y="48.804"/>
<use xlink:href="#glyph-0-1" x="204.724984" y="48.804"/>
<use xlink:href="#glyph-0-0" x="209.711008" y="48.804"/>
<use xlink:href="#glyph-0-0" x="214.697032" y="48.804"/>
<use xlink:href="#glyph-0-0" x="219.683056" y="48.804"/>
<use xlink:href="#glyph-0-0" x="224.66908" y="48.804"/>
<use xlink:href="#glyph-0-0" x="229.655104" y="48.804"/>
<use xlink:href="#glyph-0-0" x="234.641128" y="48.804"/>
<use xlink:href="#glyph-0-0" x="239.627152" y="48.804"/>
<use xlink:href="#glyph-0-0" x="244.613176" y="48.804"/>
<use xlink:href="#glyph-0-1" x="249.5992" y="48.804"/>
<use xlink:href="#glyph-0-0" x="254.585224" y="48.804"/>
<use xlink:href="#glyph-0-0" x="259.571248" y="48.804"/>
<use xlink:href="#glyph-0-0" x="264.557272" y="48.804"/>
<use xlink:href="#glyph-0-0" x="269.543296" y="48.804"/>
<use xlink:href="#glyph-0-0" x="274.52932" y="48.804"/>
</g>
</g>
<g fill="rgb(0%, 0%, 0%)" fill-opacity="1">
<use xlink:href="#glyph-0-2" x="70.103" y="55.927"/>
</g>
<g fill="rgb(0%, 0%, 0%)" fill-opacity="1">
<use xlink:href="#glyph-0-2" x="159.852" y="55.927"/>
</g>
<g fill="rgb(0%, 0%, 0%)" fill-opacity="1">
<use xlink:href="#glyph-0-2" x="249.601" y="55.927"/>
</g>
<g clip-path="url(#clip-4)">
<g fill="rgb(0%, 0%, 0%)" fill-opacity="1">
<use xlink:href="#glyph-0-0" x="0.298" y="63.05"/>
<use xlink:href="#glyph-0-0" x="5.284024" y="63.05"/>
<use xlink:href="#glyph-0-0" x="10.270048" y="63.05"/>
<use xlink:href="#glyph-0-0" x="15.256072" y="63.05"/>
<use xlink:href="#glyph-0-0" x="20.242096" y="63.05"/>
<use xlink:href="#glyph-0-0" x="25.22812" y="63.05"/>
<use xlink:href="#glyph-0-0" x="30.214144" y="63.05"/>
<use xlink:href="#glyph-0-0" x="35.200168" y="63.05"/>
<use xlink:href="#glyph-0-1" x="40.186192" y="63.05"/>
<use xlink:href="#glyph-0-0" x="45.172216" y="63.05"/>
<use xlink:href="#glyph-0-0" x="50.15824" y="63.05"/>
<use xlink:href="#glyph-0-0" x="55.144264" y="63.05"/>
<use xlink:href="#glyph-0-0" x="60.130288" y="63.05"/>
<use xlink:href="#glyph-0-0" x="65.116312" y="63.05"/>
<use xlink:href="#glyph-0-1" x="70.102336" y="63.05"/>
<use xlink:href="#glyph-0-0" x="75.08836" y="63.05"/>
<use xlink:href="#glyph-0-0" x="80.074384" y="63.05"/>
<use xlink:href="#glyph-0-0" x="85.060408" y="63.05"/>
<use xlink:href="#glyph-0-0" x="90.046432" y="63.05"/>
<use xlink:href="#glyph-0-0" x="95.032456" y="63.05"/>
<use xlink:href="#glyph-0-0" x="100.01848" y="63.05"/>
<use xlink:href="#glyph-0-0" x="105.004504" y="63.05"/>
<use xlink:href="#glyph-0-0" x="109.990528" y="63.05"/>
<use xlink:href="#glyph-0-0" x="114.976552" y="63.05"/>
<use xlink:href="#glyph-0-0" x="119.962576" y="63.05"/>
<use xlink:href="#glyph-0-0" x="124.9486" y="63.05"/>
<use xlink:href="#glyph-0-1" x="129.934624" y="63.05"/>
<use xlink:href="#glyph-0-0" x="134.920648" y="63.05"/>
<use xlink:href="#glyph-0-0" x="139.906672" y="63.05"/>
<use xlink:href="#glyph-0-0" x="144.892696" y="63.05"/>
<use xlink:href="#glyph-0-0" x="149.87872" y="63.05"/>
<use xlink:href="#glyph-0-0" x="154.864744" y="63.05"/>
<use xlink:href="#glyph-0-1" x="159.850768" y="63.05"/>
<use xlink:href="#glyph-0-0" x="164.836792" y="63.05"/>
<use xlink:href="#glyph-0-0" x="169.822816" y="63.05"/>
<use xlink:href="#glyph-0-0" x="174.80884" y="63.05"/>
<use xlink:href="#glyph-0-0" x="179.794864" y="63.05"/>
<use xlink:href="#glyph-0-0" x="184.780888" y="63.05"/>
<use xlink:href="#glyph-0-0" x="189.766912" y="63.05"/>
<use xlink:href="#glyph-0-0" x="194.752936" y="63.05"/>
<use xlink:href="#glyph-0-0" x="199.73896" y="63.05"/>
<use xlink:href="#glyph-0-0" x="204.724984" y="63.05"/>
<use xlink:href="#glyph-0-0" x="209.711008" y="63.05"/>
<use xlink:href="#glyph-0-0" x="214.697032" y="63.05"/>
<use xlink:href="#glyph-0-1" x="219.683056" y="63.05"/>
<use xlink:href="#glyph-0-0" x="224.66908" y="63.05"/>
<use xlink:href="#glyph-0-0" x="229.655104" y="63.05"/>
<use xlink:href="#glyph-0-0" x="234.641128" y="63.05"/>
<use xlink:href="#glyph-0-0" x="239.627152" y="63.05"/>
<use xlink:href="#glyph-0-0" x="244.613176" y="63.05"/>
<use xlink:href="#glyph-0-1" x="249.5992" y="63.05"/>
<use xlink:href="#glyph-0-0" x="254.585224" y="63.05"/>
<use xlink:href="#glyph-0-0" x="259.571248" y="63.05"/>
<use xlink:href="#glyph-0-0" x="264.557272" y="63.05"/>
<use xlink:href="#glyph-0-0" x="269.543296" y="63.05"/>
<use xlink:href="#glyph-0-0" x="274.52932" y="63.05"/>
</g>
</g>
<g fill="rgb(0%, 0%, 0%)" fill-opacity="1">
<use xlink:href="#glyph-0-2" x="40.187" y="70.174"/>
</g>
<g fill="rgb(0%, 0%, 0%)" fill-opacity="1">
<use xlink:href="#glyph-0-2" x="129.936" y="70.174"/>
</g>
<g fill="rgb(0%, 0%, 0%)" fill-opacity="1">
<use xlink:href="#glyph-0-2" x="219.684" y="70.174"/>
</g>
<g clip-path="url(#clip-5)">
<g fill="rgb(0%, 0%, 0%)" fill-opacity="1">
<use xlink:href="#glyph-0-0" x="0.298" y="77.297"/>
<use xlink:href="#glyph-0-0" x="5.284024" y="77.297"/>
<use xlink:href="#glyph-0-0" x="10.270048" y="77.297"/>
<use xlink:href="#glyph-0-0" x="15.256072" y="77.297"/>
<use xlink:href="#glyph-0-0" x="20.242096" y="77.297"/>
<use xlink:href="#glyph-0-0" x="25.22812" y="77.297"/>
<use xlink:href="#glyph-0-0" x="30.214144" y="77.297"/>
<use xlink:href="#glyph-0-0" x="35.200168" y="77.297"/>
<use xlink:href="#glyph-0-1" x="40.186192" y="77.297"/>
<use xlink:href="#glyph-0-0" x="45.172216" y="77.297"/>
<use xlink:href="#glyph-0-0" x="50.15824" y="77.297"/>
<use xlink:href="#glyph-0-0" x="55.144264" y="77.297"/>
<use xlink:href="#glyph-0-0" x="60.130288" y="77.297"/>
<use xlink:href="#glyph-0-0" x="65.116312" y="77.297"/>
<use xlink:href="#glyph-0-0" x="70.102336" y="77.297"/>
<use xlink:href="#glyph-0-0" x="75.08836" y="77.297"/>
<use xlink:href="#glyph-0-0" x="80.074384" y="77.297"/>
<use xlink:href="#glyph-0-1" x="85.060408" y="77.297"/>
<use xlink:href="#glyph-0-0" x="90.046432" y="77.297"/>
<use xlink:href="#glyph-0-0" x="95.032456" y="77.297"/>
<use xlink:href="#glyph-0-0" x="100.01848" y="77.297"/>
<use xlink:href="#glyph-0-0" x="105.004504" y="77.297"/>
<use xlink:href="#glyph-0-0" x="109.990528" y="77.297"/>
<use xlink:href="#glyph-0-0" x="114.976552" y="77.297"/>
<use xlink:href="#glyph-0-0" x="119.962576" y="77.297"/>
<use xlink:href="#glyph-0-0" x="124.9486" y="77.297"/>
<use xlink:href="#glyph-0-1" x="129.934624" y="77.297"/>
<use xlink:href="#glyph-0-0" x="134.920648" y="77.297"/>
<use xlink:href="#glyph-0-0" x="139.906672" y="77.297"/>
<use xlink:href="#glyph-0-0" x="144.892696" y="77.297"/>
<use xlink:href="#glyph-0-0" x="149.87872" y="77.297"/>
<use xlink:href="#glyph-0-0" x="154.864744" y="77.297"/>
<use xlink:href="#glyph-0-0" x="159.850768" y="77.297"/>
<use xlink:href="#glyph-0-0" x="164.836792" y="77.297"/>
<use xlink:href="#glyph-0-0" x="169.822816" y="77.297"/>
<use xlink:href="#glyph-0-1" x="174.80884" y="77.297"/>
<use xlink:href="#glyph-0-0" x="179.794864" y="77.297"/>
<use xlink:href="#glyph-0-0" x="184.780888" y="77.297"/>
<use xlink:href="#glyph-0-0" x="189.766912" y="77.297"/>
<use xlink:href="#glyph-0-0" x="194.752936" y="77.297"/>
<use xlink:href="#glyph-0-0" x="199.73896" y="77.297"/>
<use xlink:href="#glyph-0-0" x="204.724984" y="77.297"/>
<use xlink:href="#glyph-0-0" x="209.711008" y="77.297"/>
<use xlink:href="#glyph-0-0" x="214.697032" y="77.297"/>
<use xlink:href="#glyph-0-1" x="219.683056" y="77.297"/>
<use xlink:href="#glyph-0-0" x="224.66908" y="77.297"/>
<use xlink:href="#glyph-0-0" x="229.655104" y="77.297"/>
<use xlink:href="#glyph-0-0" x="234.641128" y="77.297"/>
<use xlink:href="#glyph-0-0" x="239.627152" y="77.297"/>
<use xlink:href="#glyph-0-0" x="244.613176" y="77.297"/>
<use xlink:href="#glyph-0-0" x="249.5992" y="77.297"/>
<use xlink:href="#glyph-0-0" x="254.585224" y="77.297"/>
<use xlink:href="#glyph-0-0" x="259.571248" y="77.297"/>
<use xlink:href="#glyph-0-1" x="264.557272" y="77.297"/>
<use xlink:href="#glyph-0-0" x="269.543296" y="77.297"/>
<use xlink:href="#glyph-0-0" x="274.52932" y="77.297"/>
</g>
</g>
<g fill="rgb(0%, 0%, 0%)" fill-opacity="1">
<use xlink:href="#glyph-0-2" x="85.061" y="84.42"/>
</g>
<g fill="rgb(0%, 0%, 0%)" fill-opacity="1">
<use xlink:href="#glyph-0-2" x="174.81" y="84.42"/>
</g>
<g fill="rgb(0%, 0%, 0%)" fill-opacity="1">
<use xlink:href="#glyph-0-2" x="264.559" y="84.42"/>
</g>
<g clip-path="url(#clip-6)">
<g fill="rgb(0%, 0%, 0%)" fill-opacity="1">
<use xlink:href="#glyph-0-0" x="0.298" y="91.543"/>
<use xlink:href="#glyph-0-0" x="5.284024" y="91.543"/>
<use xlink:href="#glyph-0-0" x="10.270048" y="91.543"/>
<use xlink:href="#glyph-0-0" x="15.256072" y="91.543"/>
<use xlink:href="#glyph-0-0" x="20.242096" y="91.543"/>
<use xlink:href="#glyph-0-0" x="25.22812" y="91.543"/>
<use xlink:href="#glyph-0-0" x="30.214144" y="91.543"/>
<use xlink:href="#glyph-0-0" x="35.200168" y="91.543"/>
<use xlink:href="#glyph-0-0" x="40.186192" y="91.543"/>
<use xlink:href="#glyph-0-0" x="45.172216" y="91.543"/>
<use xlink:href="#glyph-0-0" x="50.15824" y="91.543"/>
<use xlink:href="#glyph-0-0" x="55.144264" y="91.543"/>
<use xlink:href="#glyph-0-0" x="60.130288" y="91.543"/>
<use xlink:href="#glyph-0-0" x="65.116312" y="91.543"/>
<use xlink:href="#glyph-0-0" x="70.102336" y="91.543"/>
<use xlink:href="#glyph-0-0" x="75.08836" y="91.543"/>
<use xlink:href="#glyph-0-0" x="80.074384" y="91.543"/>
<use xlink:href="#glyph-0-1" x="85.060408" y="91.543"/>
<use xlink:href="#glyph-0-0" x="90.046432" y="91.543"/>
<use xlink:href="#glyph-0-0" x="95.032456" y="91.543"/>
<use xlink:href="#glyph-0-0" x="100.01848" y="91.543"/>
<use xlink:href="#glyph-0-0" x="105.004504" y="91.543"/>
<use xlink:href="#glyph-0-0" x="109.990528" y="91.543"/>
<use xlink:href="#glyph-0-0" x="114.976552" y="91.543"/>
<use xlink:href="#glyph-0-0" x="119.962576" y="91.543"/>
<use xlink:href="#glyph-0-0" x="124.9486" y="91.543"/>
<use xlink:href="#glyph-0-0" x="129.934624" y="91.543"/>
<use xlink:href="#glyph-0-0" x="134.920648" y="91.543"/>
<use xlink:href="#glyph-0-0" x="139.906672" y="91.543"/>
<use xlink:href="#glyph-0-0" x="144.892696" y="91.543"/>
<use xlink:href="#glyph-0-0" x="149.87872" y="91.543"/>
<use xlink:href="#glyph-0-0" x="154.864744" y="91.543"/>
<use xlink:href="#glyph-0-0" x="159.850768" y="91.543"/>
<use xlink:href="#glyph-0-0" x="164.836792" y="91.543"/>
<use xlink:href="#glyph-0-0" x="169.822816" y="91.543"/>
<use xlink:href="#glyph-0-1" x="174.80884" y="91.543"/>
<use xlink:href="#glyph-0-0" x="179.794864" y="91.543"/>
<use xlink:href="#glyph-0-0" x="184.780888" y="91.543"/>
<use xlink:href="#glyph-0-0" x="189.766912" y="91.543"/>
<use xlink:href="#glyph-0-0" x="194.752936" y="91.543"/>
<use xlink:href="#glyph-0-0" x="199.73896" y="91.543"/>
<use xlink:href="#glyph-0-0" x="204.724984" y="91.543"/>
<use xlink:href="#glyph-0-0" x="209.711008" y="91.543"/>
<use xlink:href="#glyph-0-0" x="214.697032" y="91.543"/>
<use xlink:href="#glyph-0-0" x="219.683056" y="91.543"/>
<use xlink:href="#glyph-0-0" x="224.66908" y="91.543"/>
<use xlink:href="#glyph-0-0" x="229.655104" y="91.543"/>
<use xlink:href="#glyph-0-0" x="234.641128" y="91.543"/>
<use xlink:href="#glyph-0-0" x="239.627152" y="91.543"/>
<use xlink:href="#glyph-0-0" x="244.613176" y="91.543"/>
<use xlink:href="#glyph-0-0" x="249.5992" y="91.543"/>
<use xlink:href="#glyph-0-0" x="254.585224" y="91.543"/>
<use xlink:href="#glyph-0-0" x="259.571248" y="91.543"/>
<use xlink:href="#glyph-0-1" x="264.557272" y="91.543"/>
<use xlink:href="#glyph-0-0" x="269.543296" y="91.543"/>
<use xlink:href="#glyph-0-0" x="274.52932" y="91.543"/>
</g>
</g>
</svg>
